<svg xmlns="http://www.w3.org/2000/svg" viewBox="0 0 24 24" role="img" aria-label="DeepSeek">
  <path fill="currentColor" d="M12 3C7 3 3 6.5 3 11c0 2.2 1 4.1 2.6 5.4-.3-1-.4-2-.2-3 .4-2.2 2-3.9 4.1-4.5.9-.2 1.9-.3 2.9-.2 2.5.3 4.6 2.1 5.3 4.5.3 1 .3 2.1 0 3.1C19.4 18.5 21 15.9 21 13c0-4.5-4-8-9-8zm-6.5 7.5c.6 0 1 .4 1 1s-.4 1-1 1-1-.4-1-1 .4-1 1-1zm5 0c.6 0 1 .4 1 1s-.4 1-1 1-1-.4-1-1 .4-1 1-1zm5.2 3.3c-1.1 2.5-3.6 4.2-6.5 4.2-1.2 0-2.3-.3-3.3-.8.6 1.5 1.7 2.8 3.1 3.6 1.1.6 2.4 1 3.7 1 4.1 0 7.5-3.1 7.9-7.1-1.1.5-2.4.6-3.6.2-.4-.1-.8-.4-1.3-.1z"/>
</svg>
