<svg xmlns="http://www.w3.org/2000/svg" fill="none" viewBox="0 0 37 40" height="40" width="37">
<path fill="black" d="M5.69551 6.82245C5.42304 6.95488 4.87279 7.118 4.05671 7.118C1.79686 7.118 0.5 5.57009 0.5 3.59519C0.5 1.24412 2.1525 0 4.2068 0C5.00323 0 5.42403 0.151788 5.69507 0.295217L5.44402 1.70124C5.14228 1.56815 4.82199 1.44694 4.26887 1.44694C3.29054 1.44694 2.25278 2.02638 2.25278 3.56923C2.25278 4.9494 3.08025 5.67942 4.27705 5.67942C4.75108 5.67942 5.07281 5.5868 5.44413 5.41709L5.69551 6.82245Z"></path>
<path fill="black" d="M9.44805 1.74336C8.83927 1.74336 8.25015 2.01823 7.95017 2.45974H7.93173V0.0244141L6.40039 0.552374V6.90604H7.93173V3.93814C7.93173 3.50961 8.21149 3.04863 8.74804 3.04863C9.32203 3.04863 9.54314 3.49861 9.54314 4.15317V6.90615H11.0758V3.94265C11.0758 2.42982 10.4243 1.74336 9.44805 1.74336Z"></path>
<path fill="black" d="M13.3856 4.90173C13.4419 5.54529 13.9779 5.88726 14.8062 5.89463C15.3053 5.89848 15.8856 5.75395 16.2721 5.52715L16.5032 6.71406C15.9214 7.0051 15.2567 7.11784 14.5801 7.11784C12.7573 7.11784 11.7803 6.02607 11.7803 4.35342C11.7803 2.73545 12.8308 1.69141 14.4051 1.69141C16.0276 1.69141 16.7549 2.88108 16.7549 4.37168C16.7549 4.52875 16.7355 4.78459 16.718 4.90173H13.3856ZM15.2254 3.81645C15.2254 3.44269 15.0423 2.78912 14.3334 2.78912C13.7118 2.78912 13.4186 3.32203 13.3751 3.81645H15.2254Z"></path>
<path fill="black" d="M18.5553 6.90623L16.8633 1.90381H18.5528L19.472 5.44235H19.503L20.4223 1.90381H22.1125L20.4205 6.90623H18.5553Z"></path>
<path fill="black" d="M22.5464 3.54915C22.5464 2.8132 22.5232 2.33308 22.4917 1.90389H23.9344L23.9781 2.83376H24.0169C24.2693 2.09781 24.7539 1.81821 25.2522 1.79005C25.4891 1.7763 25.6173 1.79302 25.764 1.82129V3.28396C25.6236 3.25657 25.3451 3.22434 25.1493 3.24227C24.5599 3.29628 24.2033 3.72316 24.1032 4.2146C24.0831 4.31645 24.0727 4.42952 24.0727 4.56184V6.90631H22.5469V3.54915H22.5464Z"></path>
<path fill="black" d="M31.1458 4.40468C31.1458 6.04422 30.1539 7.11784 28.5465 7.11784C26.9389 7.11784 25.9463 6.04422 25.9463 4.40468C25.9463 2.76493 26.9389 1.69141 28.5465 1.69141C30.1539 1.69141 31.1458 2.76504 31.1458 4.40468ZM29.5581 4.40468C29.5581 3.59063 29.2771 2.88207 28.5465 2.88207C27.8149 2.88207 27.5354 3.59052 27.5354 4.40468C27.5354 5.2195 27.8149 5.92696 28.5465 5.92696C29.2774 5.92696 29.5581 5.2195 29.5581 4.40468Z"></path>
<path fill="black" d="M31.8268 3.49879C31.8268 2.87448 31.8038 2.34146 31.7715 1.90391H33.2141L33.2472 2.60379H33.2781C33.4779 2.27832 34.0066 1.74365 34.8315 1.74365C35.8411 1.74365 36.5001 2.43011 36.5001 3.90268V6.90644H34.9701V4.13256C34.9701 3.48889 34.7483 3.04881 34.1947 3.04881C33.7701 3.04881 33.5065 3.34612 33.4086 3.63111C33.3724 3.73549 33.3576 3.87727 33.3576 4.02048V6.90633H31.8268V3.49879Z"></path>
<path fill="black" d="M0.554688 20.1676V8.23682L18.5294 14.2025L0.554688 20.1676Z"></path>
<path fill="black" d="M0.559082 20.1685L18.5293 26.1336L36.4985 20.1685V8.23828L18.5293 14.2026L0.559082 20.1685Z"></path>
<path fill="black" d="M0.555745 34.0357L0.554199 22.1011L18.5277 28.0665L0.555745 34.0357Z"></path>
<path fill="black" d="M36.4993 22.1011L18.5242 28.0646L0.557617 34.0335L18.5276 40.0001L36.4993 34.0316V22.1011Z"></path>
</svg>
